<?xml version="1.0" encoding="utf-8"?>
<!-- Generator: Adobe Illustrator 19.0.0, SVG Export Plug-In . SVG Version: 6.00 Build 0)  -->
<svg version="1.1" id="Layer_1" xmlns="http://www.w3.org/2000/svg" xmlns:xlink="http://www.w3.org/1999/xlink" x="0px" y="0px"
	 viewBox="0 0 389 76" style="enable-background:new 0 0 389 76;" xml:space="preserve">
<style type="text/css">
	.st0{fill:#2A6DAD;}
</style>
<g id="XMLID_28_">
	<path id="XMLID_29_" class="st0" d="M37.2,16.5c-0.5-0.5-1.2-1.1-2.2-1.7c-0.9-0.6-2-1.2-3.3-1.7c-1.3-0.5-2.7-1-4.2-1.3
		c-1.5-0.3-3.2-0.5-4.9-0.5c-3.3,0-5.7,0.6-7.4,1.9c-1.7,1.3-2.5,3.1-2.5,5.4c0,1.3,0.3,2.3,0.8,3.2c0.5,0.8,1.4,1.5,2.5,2.1
		c1.1,0.6,2.5,1.1,4.1,1.6c1.6,0.5,3.5,1,5.7,1.5c2.6,0.7,4.9,1.4,7.1,2.2c2.2,0.7,4,1.7,5.5,2.8c1.5,1.1,2.7,2.5,3.5,4.1
		c0.8,1.6,1.3,3.7,1.3,6.1c0,2.8-0.5,5.1-1.6,7.1c-1,1.9-2.4,3.5-4.2,4.7c-1.8,1.2-3.8,2.1-6.1,2.7c-2.3,0.6-4.8,0.9-7.4,0.9
		c-4,0-7.9-0.6-11.7-1.8C8.4,54.3,5,52.6,2,50.2l3.9-7.1c0.6,0.6,1.6,1.4,2.7,2.2c1.2,0.8,2.6,1.5,4.2,2.2c1.6,0.7,3.4,1.2,5.3,1.7
		c1.9,0.5,3.9,0.7,6,0.7c3.2,0,5.6-0.6,7.4-1.7c1.8-1.2,2.6-2.9,2.6-5.1c0-1.3-0.3-2.5-1-3.3c-0.6-0.9-1.6-1.7-2.8-2.3
		c-1.2-0.7-2.7-1.3-4.5-1.8c-1.8-0.5-3.8-1.1-6.1-1.7c-2.6-0.7-4.9-1.4-6.9-2.2c-2-0.8-3.6-1.7-4.9-2.8c-1.3-1.1-2.3-2.4-2.9-3.8
		c-0.7-1.5-1-3.2-1-5.3c0-2.6,0.5-4.9,1.4-6.9c1-2,2.3-3.7,4-5.1c1.7-1.4,3.7-2.4,6.1-3.1c2.3-0.7,4.8-1,7.5-1c3.7,0,7,0.6,10,1.7
		c3,1.1,5.6,2.6,7.9,4.2L37.2,16.5z"/>
	<path id="XMLID_31_" class="st0" d="M97.6,18h7.8L88.9,56.9h-6.7L75,38.8l-7.2,18.1H61L44.7,18h7.7l12.6,31l5.6-14.4l-6.8-16.5h6.7
		L75,30.3l4.5-12.2h6.7l-6.7,16.5L85.1,49L97.6,18z"/>
	<path id="XMLID_33_" class="st0" d="M120.2,57.6c-1.9,0-3.6-0.3-5.2-0.9c-1.6-0.6-3-1.5-4.2-2.6c-1.2-1.1-2.1-2.4-2.7-3.9
		c-0.7-1.5-1-3.1-1-4.8c0-1.8,0.4-3.5,1.2-5c0.8-1.5,1.9-2.8,3.4-3.9c1.5-1.1,3.2-1.9,5.2-2.5c2-0.6,4.2-0.9,6.7-0.9
		c1.8,0,3.6,0.2,5.4,0.5c1.8,0.3,3.4,0.8,4.8,1.3v-2.7c0-2.9-0.8-5.1-2.5-6.7c-1.6-1.6-4-2.4-7.1-2.4c-2.1,0-4.1,0.4-6.1,1.2
		c-2,0.8-4.1,1.9-6.2,3.3l-2.5-5.2c5-3.4,10.2-5.1,15.6-5.1c5.4,0,9.5,1.4,12.5,4.1c3,2.7,4.5,6.6,4.5,11.7v14c0,0.9,0.2,1.6,0.5,2
		c0.3,0.4,0.9,0.6,1.8,0.7v7c-0.8,0.1-1.5,0.2-2.2,0.3c-0.7,0-1.3,0.1-1.8,0.1c-1.6-0.1-2.8-0.5-3.6-1.3s-1.3-1.7-1.5-3l-0.2-2.5
		c-1.7,2.3-3.9,4-6.4,5.2C125.8,57,123.1,57.6,120.2,57.6z M122.4,51.6c2,0,3.9-0.4,5.6-1.1c1.8-0.7,3.1-1.7,4.1-3
		c1-0.9,1.6-1.8,1.6-2.8v-5.1c-1.4-0.5-2.9-1-4.4-1.3c-1.6-0.3-3.1-0.4-4.6-0.4c-2.9,0-5.3,0.6-7.2,1.9c-1.9,1.3-2.8,2.9-2.8,5
		c0,1.9,0.7,3.6,2.2,4.9C118.3,50.9,120.2,51.6,122.4,51.6z"/>
	<path id="XMLID_36_" class="st0" d="M151.6,66.1c0.7,0.1,1.3,0.2,1.9,0.3c0.6,0,1.1,0.1,1.6,0.1c0.6,0,1.2-0.1,1.7-0.2
		c0.5-0.1,1-0.5,1.4-1.2c0.5-0.6,1-1.6,1.6-2.9c0.6-1.3,1.3-3.1,2-5.4L146,18h8.4l12,31.7L177.1,18h7.7l-17.8,47.9
		c-1,2.7-2.5,4.7-4.5,5.9c-2,1.3-4.3,1.9-6.9,1.9c-1.4,0-2.8-0.2-4.2-0.6V66.1z"/>
	<path id="XMLID_38_" d="M190.9,2.6h8.2v42.8c0,1.4,0.4,2.6,1.1,3.4c0.7,0.8,1.8,1.2,3.1,1.2c0.5,0,1.2-0.1,1.9-0.3
		c0.7-0.2,1.4-0.4,2.1-0.7l1.2,6.6c-1.2,0.5-2.6,1-4.2,1.3c-1.6,0.3-3.1,0.5-4.4,0.5c-2.8,0-5-0.8-6.6-2.3c-1.6-1.5-2.4-3.7-2.4-6.5
		V2.6z"/>
	<path id="XMLID_40_" d="M230.4,57.6c-3.1,0-5.8-0.5-8.3-1.6c-2.5-1.1-4.5-2.6-6.3-4.4c-1.7-1.8-3.1-4-4-6.4c-0.9-2.5-1.4-5-1.4-7.7
		c0-2.7,0.5-5.2,1.4-7.7c0.9-2.5,2.3-4.6,4-6.4c1.8-1.8,3.9-3.3,6.3-4.4c2.5-1.1,5.2-1.6,8.2-1.6s5.8,0.5,8.2,1.6
		c2.5,1.1,4.6,2.6,6.3,4.4c1.8,1.8,3.1,4,4,6.4c0.9,2.5,1.4,5,1.4,7.7c0,2.7-0.5,5.2-1.4,7.7c-0.9,2.5-2.3,4.6-4,6.4
		c-1.8,1.8-3.9,3.3-6.3,4.4C236.1,57,233.4,57.6,230.4,57.6z M218.8,37.5c0,1.9,0.3,3.6,0.9,5.2c0.6,1.6,1.4,3,2.5,4.1
		c1,1.2,2.3,2.1,3.7,2.7c1.4,0.7,2.9,1,4.6,1s3.2-0.3,4.6-1c1.4-0.7,2.6-1.6,3.7-2.8c1-1.2,1.9-2.6,2.5-4.2c0.6-1.6,0.9-3.3,0.9-5.2
		c0-1.8-0.3-3.6-0.9-5.2c-0.6-1.6-1.4-3-2.5-4.2c-1-1.2-2.3-2.1-3.7-2.8c-1.4-0.7-2.9-1-4.6-1c-1.6,0-3.1,0.3-4.5,1
		c-1.4,0.7-2.6,1.6-3.7,2.8s-1.9,2.6-2.5,4.2C219.1,34,218.8,35.7,218.8,37.5z"/>
	<path id="XMLID_43_" d="M255,37.4c0-2.7,0.5-5.3,1.4-7.7c0.9-2.4,2.3-4.6,4-6.4c1.8-1.8,3.9-3.3,6.4-4.3c2.5-1.1,5.3-1.6,8.3-1.6
		c4,0,7.5,0.9,10.4,2.6c2.9,1.8,5.1,4.1,6.5,7l-8,2.5c-0.9-1.6-2.2-2.9-3.8-3.8c-1.6-0.9-3.3-1.4-5.3-1.4c-1.6,0-3.2,0.3-4.6,1
		c-1.4,0.6-2.6,1.5-3.7,2.7c-1,1.2-1.9,2.5-2.5,4.1c-0.6,1.6-0.9,3.3-0.9,5.3c0,1.9,0.3,3.6,0.9,5.2c0.6,1.6,1.5,3,2.5,4.2
		c1.1,1.2,2.3,2.1,3.7,2.8c1.4,0.7,2.9,1,4.5,1c1,0,2-0.1,3-0.4c1-0.3,1.9-0.7,2.7-1.2c0.8-0.5,1.5-1.1,2.2-1.7
		c0.6-0.6,1.1-1.3,1.4-2.1l8,2.4c-1.3,2.9-3.4,5.3-6.5,7.2c-3,1.9-6.6,2.8-10.7,2.8c-3,0-5.8-0.5-8.2-1.6c-2.5-1.1-4.6-2.6-6.4-4.4
		c-1.8-1.9-3.1-4-4.1-6.4C255.5,42.7,255,40.1,255,37.4z"/>
	<path id="XMLID_45_" d="M326,56.9l-12.4-17.9l-6.5,6.1v11.8h-8.2V2.6h8.2V37L325,18.1h8.8l-15,16.3l15.9,22.5H326z"/>
	<path id="XMLID_47_" d="M337.9,2.6c1,0,2,0.1,3,0.3c1,0.2,2,0.6,2.9,1.1c0.9,0.5,1.6,1.2,2.2,2c0.6,0.8,0.9,1.9,0.9,3.1v9.5H340
		v-8.1c0-0.8-0.3-1.4-0.8-1.6c-0.5-0.2-1-0.4-1.3-0.4V2.6z"/>
	<path id="XMLID_49_" d="M370.2,57.6c-1.6,0-3.2-0.1-4.8-0.4c-1.6-0.2-3.2-0.6-4.8-1.1c-1.6-0.5-3-1-4.5-1.7
		c-1.4-0.7-2.7-1.4-3.8-2.3l3.4-5.5c4.8,3.3,9.5,5,14.2,5c2.5,0,4.4-0.5,5.9-1.4c1.4-0.9,2.2-2.3,2.2-4c0-1.6-0.8-2.8-2.4-3.6
		c-1.6-0.8-4.2-1.6-7.7-2.4c-2.4-0.6-4.5-1.2-6.2-1.8c-1.7-0.6-3.1-1.3-4.2-2.1c-1.1-0.8-1.9-1.7-2.4-2.7c-0.5-1.1-0.7-2.3-0.7-3.8
		c0-2,0.4-3.7,1.2-5.3c0.8-1.5,1.9-2.8,3.2-3.9c1.4-1.1,3-1.9,4.8-2.4c1.9-0.5,3.9-0.8,6-0.8c2.8,0,5.5,0.4,8.2,1.3
		c2.6,0.9,5,2.1,7.1,3.6l-3.5,5c-3.7-2.8-7.7-4.2-11.9-4.2c-2.1,0-3.8,0.4-5.3,1.3c-1.4,0.9-2.2,2.2-2.2,4.1c0,0.8,0.1,1.5,0.4,2
		c0.3,0.5,0.8,1,1.4,1.4c0.7,0.4,1.5,0.8,2.6,1.1c1.1,0.3,2.4,0.7,4,1.1c2.7,0.6,5,1.3,6.9,1.9c1.9,0.6,3.5,1.4,4.8,2.3
		c1.3,0.9,2.2,1.9,2.8,3c0.6,1.2,0.9,2.6,0.9,4.2c0,1.8-0.4,3.5-1.1,5c-0.7,1.5-1.8,2.7-3.2,3.8c-1.4,1-3,1.8-5,2.4
		C374.7,57.3,372.6,57.6,370.2,57.6z"/>
</g>
</svg>
